<svg width="120" height="70" viewBox="0 0 120 70" fill="none" xmlns="http://www.w3.org/2000/svg">
<path d="M70.7177 11.2628C75.8509 8.15083 82.1967 6.31148 89.0653 6.31148C106.15 6.31148 120 17.6915 120 31.7295C120 42.3154 112.124 51.3899 100.924 55.2128C99.6833 61.1579 94.1706 65.6393 87.5578 65.6393C84.136 65.6393 81.0087 64.4394 78.6154 62.4576C73.0083 67.1147 65.2258 70 56.6231 70C46.4105 70 37.3538 65.9337 31.7202 59.6641C31.4592 59.6694 31.1973 59.6721 30.9347 59.6721C13.8499 59.6721 0 48.2921 0 34.2541C0 20.2161 13.8499 8.83607 30.9347 8.83607C32.4166 8.83607 33.8743 8.9217 35.3007 9.08726C38.837 3.63427 45.1735 0 52.402 0C60.5542 0 67.5718 4.62233 70.7177 11.2628Z" fill="white"/>
</svg>
